<?xml version="1.0" encoding="utf-8"?>
<!-- Generator: Adobe Illustrator 23.0.1, SVG Export Plug-In . SVG Version: 6.00 Build 0)  -->
<svg version="1.1" id="Camada_1" xmlns="http://www.w3.org/2000/svg" xmlns:xlink="http://www.w3.org/1999/xlink" x="0px" y="0px"
	 viewBox="0 0 24 24" style="enable-background:new 0 0 24 24;" xml:space="preserve">
<g>
	<path d="M13.4,2.12c1.13,0.41,3.2,1.55,4.91,3.34c1.3,1.35,2.82,3.54,2.71,6.32c-0.21,5.29-6.03,8.12-8.92,8.98
		c1.94-1.47,5.35-4.25,5.81-8.39c0.47-4.32-2.51-7.87-4.11-9.77C13.66,2.44,13.52,2.28,13.4,2.12 M12.69,1.45
		c-0.09,0-0.16,0.02-0.19,0.05c-0.54,0.51,5.54,4.99,4.9,10.82c-0.62,5.68-7.21,8.77-6.9,9.18c0.03,0.04,0.1,0.05,0.23,0.05
		c1.58,0,10.51-2.96,10.78-9.75C21.77,5.42,14.12,1.45,12.69,1.45L12.69,1.45z"/>
</g>
<g>
	<path d="M11.41,6.28l0.23,1.02l0.03,0.13l0.12,0.05l0.97,0.39l-0.9,0.53l-0.11,0.07l-0.01,0.13l-0.07,1.04l-0.78-0.69l-0.1-0.09
		l-0.13,0.03L9.66,9.15l0.41-0.96l0.05-0.12l-0.07-0.11L9.49,7.08l1.04,0.1l0.13,0.01l0.08-0.1L11.41,6.28 M11.55,5.73l-0.99,1.19
		L9.01,6.78l0.82,1.31L9.23,9.51l1.5-0.38l1.16,1.02l0.1-1.54l1.33-0.79l-1.44-0.58L11.55,5.73L11.55,5.73z"/>
</g>
<g>
	<path d="M10.81,13.2l0.04,1.18l0,0.13l0.11,0.07l0.99,0.64l-1.11,0.4l-0.12,0.04l-0.03,0.13l-0.3,1.14L9.67,16l-0.08-0.1
		l-0.13,0.01l-1.18,0.07L8.95,15l0.07-0.11l-0.05-0.12l-0.43-1.1L9.67,14l0.13,0.04l0.1-0.08L10.81,13.2 M11.05,12.69l-1.3,1.07
		l-1.62-0.47l0.61,1.57l-0.95,1.4l1.68-0.1l1.04,1.33l0.43-1.63l1.59-0.57l-1.42-0.91L11.05,12.69L11.05,12.69z"/>
</g>
<g>
	<path d="M19.65,0.89l0.44,0.46l0.09,0.09l0.13-0.02l0.63-0.1l-0.3,0.56L20.58,2l0.06,0.12l0.29,0.57L20.3,2.58l-0.13-0.02
		l-0.09,0.09L19.63,3.1l-0.09-0.63l-0.02-0.13l-0.12-0.06l-0.57-0.29l0.57-0.28l0.12-0.06l0.02-0.13L19.65,0.89 M19.48,0.36
		l-0.17,1.13l-1.03,0.5L19.3,2.5l0.16,1.13l0.81-0.81l1.13,0.2l-0.52-1.02L21.4,1l-1.13,0.18L19.48,0.36L19.48,0.36z"/>
</g>
<g>
	<path d="M20.37,19.07l-0.09,0.97l-0.01,0.13l0.1,0.08l0.75,0.62l-0.95,0.22l-0.13,0.03L20,21.26l-0.36,0.91l-0.5-0.84l-0.07-0.11
		l-0.13-0.01l-0.98-0.06l0.64-0.74l0.09-0.1l-0.03-0.13l-0.24-0.95l0.9,0.38l0.12,0.05l0.11-0.07L20.37,19.07 M20.66,18.59
		l-1.25,0.8l-1.37-0.58l0.37,1.44l-0.98,1.12l1.48,0.09l0.76,1.27l0.55-1.38l1.45-0.33l-1.14-0.95L20.66,18.59L20.66,18.59z"/>
</g>
</svg>
