<?xml version="1.0" encoding="utf-8"?>
<!-- Generator: Adobe Illustrator 23.0.1, SVG Export Plug-In . SVG Version: 6.00 Build 0)  -->
<svg version="1.1" id="Camada_1" xmlns="http://www.w3.org/2000/svg" xmlns:xlink="http://www.w3.org/1999/xlink" x="0px" y="0px"
	 viewBox="0 0 24 24" style="enable-background:new 0 0 24 24;" xml:space="preserve">
<style type="text/css">
	.st0{fill:none;stroke:#000000;stroke-miterlimit:10;}
</style>
<g>
	<g>
		<path d="M11.08-0.02c-0.05,0.48-0.37,0.76-0.7,1.08c-0.27,0.26-0.17,0.67-0.16,1.03c0,0.37-0.03,0.57,0.25,0.84
			c0.25,0.25,0.92,0.33,0.97,0.71c0-0.42,0-0.83,0-1.25c-0.01,0.04-0.03,0.08-0.04,0.12c-0.13,0.37,0.13,0.88,0,1.25
			c0.08-0.21,0.05-0.44,0.05-0.66c0-0.22,0.04-0.49-0.01-0.71c-0.07-0.3-0.34-0.33-0.59-0.45c-0.27-0.13-0.49-0.33-0.63-0.6
			c0,0.15,0,0.31,0.01,0.46c0-0.03,0-0.07,0-0.1c0,0.26,0,0.53-0.01,0.79c0.3-0.46,0.79-0.64,0.86-1.26
			C11.13,0.81,11.04,0.39,11.08-0.02L11.08-0.02z"/>
	</g>
</g>
<g>
	<g>
		<path d="M5.08,1.01C5.02,1.76,4.67,2.21,4.35,2.85C4.17,3.2,4.21,3.6,4.22,3.99c0,0.39,0,0.65,0.19,1
			c0.27,0.49,0.94,0.69,1.02,1.26c0-0.42,0-0.83,0-1.25C5.42,5.07,5.4,5.14,5.39,5.22c-0.08,0.4,0.08,0.85,0,1.25
			c0.09-0.44,0.12-1.01,0.05-1.45C5.36,4.59,5.16,4.54,4.85,4.28c-0.31-0.26-0.51-0.61-0.63-1c0,0.41,0,0.82,0,1.23
			c0.02-0.39,0.36-0.69,0.52-1.03c0.19-0.39,0.3-0.79,0.34-1.22C5.11,1.84,5.05,1.42,5.08,1.01L5.08,1.01z"/>
	</g>
</g>
<g>
	<g>
		<path d="M9.08-0.02c-0.05,0.48-0.37,0.76-0.7,1.08C8.11,1.31,8.21,1.73,8.22,2.08c0,0.37-0.03,0.57,0.25,0.84
			c0.25,0.25,0.92,0.33,0.97,0.71c0-0.42,0-0.83,0-1.25C9.42,2.43,9.4,2.47,9.39,2.51c-0.13,0.37,0.13,0.88,0,1.25
			C9.47,3.55,9.44,3.32,9.44,3.1c0-0.22,0.04-0.49-0.01-0.71c-0.07-0.3-0.34-0.33-0.59-0.45c-0.27-0.13-0.49-0.33-0.63-0.6
			c0,0.15,0,0.31,0.01,0.46c0-0.03,0-0.07,0-0.1c0,0.26,0,0.53-0.01,0.79c0.3-0.46,0.79-0.64,0.86-1.26
			C9.13,0.81,9.04,0.39,9.08-0.02L9.08-0.02z"/>
	</g>
</g>
<g>
	<g>
		<path d="M7.08-0.02c-0.05,0.6-0.35,0.98-0.7,1.43C6.14,1.73,6.21,2.07,6.22,2.45c0,0.38-0.02,0.64,0.19,0.96
			c0.26,0.39,0.97,0.54,1.02,1.03c0-0.42,0-0.83,0-1.25C7.42,3.24,7.4,3.3,7.39,3.35c-0.11,0.39,0.1,0.86,0,1.25
			C7.5,4.19,7.5,3.62,7.43,3.2C7.38,2.86,7.19,2.82,6.92,2.64C6.59,2.42,6.37,2.18,6.22,1.8c0,0.15,0,0.31,0.01,0.46
			c0-0.05,0-0.09,0-0.14c0,0.26,0,0.53-0.01,0.79c0.3-0.61,0.8-0.93,0.86-1.68C7.12,0.82,7.05,0.4,7.08-0.02L7.08-0.02z"/>
	</g>
</g>
<g>
	<g>
		<path d="M0.89,7.47c0.15,0.26,0.25,0.52,0.32,0.81c0.04,0.16,0.01,0.5,0.07,0.07c0.06-0.43,0.01-0.18,0.01-0.06
			c0,0.39-0.06,0.83,0,1.22c0.19,1.16,1.84,0.4,2.18,1.31c-0.13-0.36,0.14-0.88,0-1.25C3.27,9.02,2.9,9.13,2.43,9.07
			C1.98,9.01,1.39,8.74,1.29,8.27c0,0.26,0,0.53,0.01,0.79c0,0.23,0.01-0.3,0.02-0.4c0-0.27,0.01-0.54,0-0.81
			C1.3,7.28,1.18,6.72,0.89,6.22C1.06,6.52,0.7,7.15,0.89,7.47L0.89,7.47z"/>
	</g>
</g>
<g>
	<g>
		<path d="M1.77,21.91c0.44-0.14,0.9-0.18,1.37-0.13c0.49,0.06,0.82,0.29,1.25-0.06c0.57-0.47,0.41-1.52,1.2-1.65
			c0.07-0.01-0.06-1.24,0-1.25c-0.79,0.13-0.62,1.18-1.2,1.65c-0.41,0.33-0.67,0.14-1.15,0.07c-0.49-0.07-0.99-0.04-1.46,0.11
			C1.64,20.7,1.88,21.87,1.77,21.91L1.77,21.91z"/>
	</g>
</g>
<g>
	<g>
		<path d="M0.94,17.39c0.42,0.19,0.79,0.47,1.1,0.82c0.21,0.23,0.34,0.63,0.64,0.76c0.89,0.37,1.51-0.84,2.31-0.38
			c-0.17-0.1,0.19-1.14,0-1.25c-0.8-0.46-1.43,0.78-2.31,0.38c-0.3-0.14-0.43-0.51-0.64-0.76c-0.31-0.35-0.68-0.63-1.1-0.82
			C1.09,16.2,0.78,17.31,0.94,17.39L0.94,17.39z"/>
	</g>
</g>
<g>
	<g>
		<path d="M9.98,24c0.23-0.32,0.51-0.43,0.82-0.65c0.23-0.17,0.21-0.4,0.22-0.66c0-0.33,0.01-0.67,0-1
			c-0.01-0.26-0.13-0.46-0.16-0.71c0,0.42,0,0.83,0,1.25c0.01-0.09,0.05-0.17,0.12-0.22c0.07-0.09,0.01-0.51,0.01-0.63
			c0-0.11-0.08-0.54-0.01-0.63c-0.23,0.28-0.13,0.75-0.13,1.09c0,0.13-0.01,0.26,0.01,0.38c0.03,0.2,0.13,0.37,0.15,0.58
			c0-0.36,0-0.71,0-1.07c0,0.05,0,0.09,0,0.14c0-0.06,0-0.12,0-0.18c-0.03,0.31-0.14,0.35-0.39,0.49c-0.26,0.14-0.47,0.32-0.64,0.56
			c-0.07,0.1-0.01,0.5-0.01,0.63C9.97,23.51,10.05,23.9,9.98,24L9.98,24z"/>
	</g>
</g>
<g>
	<g>
		<path d="M11.9,21.89c0,0.05,0.01,0.1,0.01,0.15c0-0.42,0-0.83,0-1.25c-0.03,0.39-0.26,0.65-0.35,1.01c-0.07,0.29-0.01,0.68,0,0.98
			c0,0.27,0.01,0.42,0.23,0.61c0.22,0.19,0.61,0.18,0.73,0.46c0-0.41,0-0.82,0-1.23c0,0.04,0,0.08-0.01,0.12
			c-0.02,0.38,0.02,0.91,0,1.21c0.01-0.24,0.01-0.48,0.01-0.72c0-0.17,0.06-0.47-0.01-0.63c-0.17-0.42-0.89-0.26-0.96-0.83
			c0,0.42,0,0.83,0,1.25c0.17-0.4,0.34-0.72,0.35-1.17c0.01-0.41,0.02-0.82-0.02-1.22C11.93,21.05,11.86,21.48,11.9,21.89
			L11.9,21.89z"/>
	</g>
</g>
<g>
	<g>
		<path d="M6.83,23.96c0.4-0.33,0.9-0.45,1.42-0.47c0.49-0.02,0.59-0.29,0.64-0.76C8.92,22.37,8.9,22,8.9,21.65
			c0-0.37-0.11-0.67-0.15-1.03c0,0.41,0,0.82,0,1.23c0.01-0.22,0.09-0.31,0.27-0.4c0.17-0.09-0.16-1.17,0-1.25
			c-0.36,0.18-0.28,0.53-0.28,0.88c0,0.37-0.05,0.8,0.08,1.15c0.15,0.39,0.02-0.55,0.05-0.61c-0.06,0.11-0.04,0.27-0.1,0.38
			c-0.09,0.18-0.2,0.22-0.4,0.24C7.8,22.3,7.3,22.32,6.83,22.71c-0.06,0.05-0.01,0.54-0.01,0.63C6.83,23.42,6.9,23.91,6.83,23.96
			L6.83,23.96z"/>
	</g>
</g>
<g>
	<g>
		<path d="M13.49,21.98c0.03,0.05,0.07,0.21,0.11,0.24c0.05-0.57,0.04-0.72-0.01-0.48c-0.01,0.04-0.02,0.09-0.04,0.13
			c-0.03,0.11-0.04,0.2-0.05,0.32c-0.02,0.33-0.08,0.83,0,1.15c0.2,0.73,1.49-0.31,1.64,0.3c-0.1-0.39,0.1-0.86,0-1.25
			c-0.14-0.57-1.61,0.42-1.64-0.31c0,0.41,0,0.82,0,1.23c0.11-0.45,0.14-0.83,0.14-1.29c0-0.42,0.07-0.92-0.15-1.3
			c0.06,0.11-0.01,0.49-0.01,0.63C13.49,21.5,13.41,21.85,13.49,21.98L13.49,21.98z"/>
	</g>
</g>
<g>
	<g>
		<path d="M20.85,9.94c0.4-0.33,0.9-0.44,1.41-0.47c0.49-0.02,0.59-0.29,0.63-0.76C22.93,8.36,22.91,8,22.9,7.64
			c0-0.37-0.11-0.67-0.15-1.03c0,0.41,0,0.82,0,1.23c0.01-0.22,0.08-0.31,0.27-0.4c0.17-0.09-0.16-1.17,0-1.25
			c-0.36,0.18-0.28,0.53-0.28,0.88c0,0.37-0.05,0.8,0.08,1.15c0.15,0.39,0.02-0.55,0.05-0.61c-0.06,0.11-0.04,0.27-0.1,0.38
			c-0.09,0.18-0.2,0.21-0.4,0.24c-0.57,0.06-1.07,0.08-1.53,0.47c-0.06,0.05-0.01,0.54-0.01,0.63C20.85,9.4,20.91,9.89,20.85,9.94
			L20.85,9.94z"/>
	</g>
</g>
<g>
	<g>
		<path d="M23.95,10.79c-0.36,0.08-0.75,0.02-1.1-0.13c-0.29-0.13-0.46-0.31-0.73-0.07c-0.23,0.2-0.31,0.49-0.37,0.78
			c-0.05,0.28-0.1,0.54-0.44,0.54c0,0-0.01,1.25,0,1.25c0.35,0,0.39-0.25,0.44-0.54c0.05-0.29,0.14-0.57,0.37-0.78
			c0.28-0.25,0.44-0.06,0.73,0.07c0.34,0.15,0.73,0.21,1.1,0.13C24.04,12.02,23.88,10.8,23.95,10.79L23.95,10.79z"/>
	</g>
</g>
<g>
	<g>
		<path d="M23.34,15.74c-0.28-0.28-0.45-0.67-0.51-1.06c-0.04-0.28,0.03-0.56-0.28-0.68c-0.25-0.1-0.61-0.05-0.86,0.04
			c-0.32,0.12-0.63,0.35-0.87-0.02c0.06,0.11-0.01,0.5-0.01,0.63c0,0.15-0.07,0.5,0.01,0.63c0.23,0.37,0.55,0.14,0.87,0.02
			c0.25-0.09,0.6-0.15,0.86-0.04c0.31,0.12,0.23,0.4,0.28,0.68c0.06,0.39,0.22,0.78,0.51,1.06c-0.06-0.06,0.01-0.53,0.01-0.63
			C23.35,16.26,23.42,15.81,23.34,15.74L23.34,15.74z"/>
	</g>
</g>
<g>
	<g>
		<path d="M23.15,18.77c-0.31-0.34-0.54-0.75-0.68-1.19c-0.14-0.45-0.06-0.87-0.53-1.1c-0.33-0.16-0.69-0.19-1.05-0.14
			c-0.43,0.06-0.71,0.13-0.98-0.29c0.19,0.29-0.19,0.95,0,1.25c0.23,0.37,0.5,0.37,0.9,0.3c0.38-0.07,0.76-0.05,1.12,0.12
			c0.44,0.22,0.38,0.57,0.5,1c0.13,0.48,0.37,0.92,0.7,1.29C22.94,19.79,23.36,19,23.15,18.77L23.15,18.77z"/>
	</g>
</g>
<g>
	<g>
		<path d="M22.11,20.79c-0.35-0.39-0.59-0.89-0.7-1.4c-0.08-0.36-0.04-0.68-0.39-0.89c-0.3-0.17-0.69-0.25-1.03-0.21
			c-0.45,0.05-0.77,0.17-1.05-0.29c0.18,0.3-0.19,0.94,0,1.25c0.28,0.45,0.59,0.34,1.05,0.29c0.34-0.04,0.73,0.04,1.03,0.21
			c0.36,0.21,0.31,0.53,0.39,0.89c0.11,0.51,0.36,1.01,0.7,1.4c-0.06-0.07,0.01-0.52,0.01-0.63C22.12,21.3,22.19,20.88,22.11,20.79
			L22.11,20.79z"/>
	</g>
</g>
<g>
	<g>
		<path d="M18.66,23.57c0.01-0.33,0.11-0.62,0.25-0.91c0.12-0.25,0.36-0.44,0.47-0.68c0.14-0.29,0.07-0.74,0.06-1.06
			c0-0.38-0.01-0.59-0.27-0.9c-0.29-0.35-0.94-0.44-1.01-0.93c0,0.42,0,0.83,0,1.25c0.01-0.05,0.02-0.11,0.04-0.16
			c0.09-0.4-0.09-0.86,0-1.25c-0.09,0.42-0.11,0.98-0.04,1.4c0.06,0.34,0.26,0.39,0.53,0.56c0.34,0.21,0.57,0.45,0.73,0.83
			c0-0.41,0-0.82,0-1.23c-0.01,0.36-0.42,0.7-0.57,1.02c-0.13,0.28-0.2,0.55-0.21,0.86C18.64,22.74,18.67,23.27,18.66,23.57
			L18.66,23.57z"/>
	</g>
</g>
<g>
	<g>
		<path d="M17.29,22.88c-0.04-0.11-0.06-0.22-0.06-0.34c0,0.41,0,0.82,0,1.23c0.02-0.33,0.1-0.65,0.25-0.95
			c0.09-0.18,0.2-0.32,0.23-0.53c0.05-0.34,0.07-0.84,0-1.17c-0.07-0.34-0.53-0.48-0.84-0.53c-0.33-0.05-0.95,0.13-1.09-0.27
			c0,0.39,0,0.78,0,1.16c0-0.04,0-0.08,0-0.12c0-0.28,0-0.57,0-0.86c0-0.06-0.01-0.45-0.01-0.22c-0.01,0.36-0.2,1.3,0.19,1.5
			c0.51,0.26,1.44-0.18,1.74,0.54c0-0.42,0-0.83,0-1.25c-0.07,0.33-0.3,0.59-0.39,0.92c-0.06,0.23-0.09,0.45-0.09,0.69
			c-0.01,0.47-0.06,1,0.06,1.46C17.18,23.75,17.4,23.27,17.29,22.88L17.29,22.88z"/>
	</g>
</g>
<g>
	<g>
		<path d="M4.12,23.64c0.45-0.39,1.02-0.62,1.61-0.72c0.56-0.09,0.75-0.31,0.88-0.87c0.17-0.72,0.03-1.48-0.03-2.2
			c0,0.41,0,0.82,0,1.23c0.02-0.3,0.12-0.42,0.37-0.57c0.19-0.11-0.18-1.15,0-1.25c-0.7,0.41-0.36,1.73-0.29,2.42
			c0-0.41,0-0.82,0-1.23c-0.03,0.56-0.2,1.11-0.79,1.22c-0.65,0.11-1.24,0.29-1.75,0.73C3.91,22.57,4.32,23.47,4.12,23.64
			L4.12,23.64z"/>
	</g>
</g>
<g>
	<g>
		<path d="M22.72,4.01c-0.5,0.27-1,0.22-1.54,0.15c-0.48-0.06-0.65,0.41-0.7,0.83c-0.05,0.37-0.02,0.76-0.01,1.13
			c0,0.14,0,0.29,0.02,0.43c0-0.26-0.01-0.52-0.01-0.78c-0.01,0.03-0.03,0.06-0.04,0.09c-0.01,0-0.24,0.15-0.28,0.16
			c-0.11,0.03,0.09,1.23,0,1.25c0.41-0.11,0.35-0.5,0.35-0.85c0-0.45-0.03-0.89-0.04-1.34c0,0.41,0,0.82,0,1.23
			c0.05-0.43,0.2-0.96,0.71-0.89c0.54,0.07,1.04,0.12,1.54-0.15c0.05-0.03,0.01-0.56,0.01-0.63C22.72,4.57,22.67,4.04,22.72,4.01
			L22.72,4.01z"/>
	</g>
</g>
<g>
	<g>
		<path d="M0.25,13.95c0.36,0.29,0.65,0.65,0.86,1.07c0.18,0.36,0.19,0.77,0.58,0.96c0.76,0.38,1.59-0.49,2.19,0.13
			c-0.2-0.21,0.21-1.03,0-1.25c-0.6-0.62-1.42,0.25-2.19-0.13c-0.37-0.18-0.38-0.53-0.54-0.87c-0.21-0.45-0.52-0.85-0.9-1.16
			C0.44,12.86,0.04,13.79,0.25,13.95L0.25,13.95z"/>
	</g>
</g>
<g>
	<g>
		<path d="M0.88,10.48C1.03,10.74,1.13,11,1.2,11.29c0.04,0.16,0.01,0.5,0.07,0.07c0.06-0.43,0.01-0.18,0.01-0.06
			c0,0.39-0.06,0.83,0,1.22c0.19,1.16,1.84,0.39,2.18,1.3c-0.14-0.36,0.14-0.88,0-1.25c-0.2-0.53-0.57-0.43-1.04-0.49
			c-0.44-0.05-1.04-0.33-1.14-0.79c0,0.26,0,0.53,0.01,0.79c0,0.23,0.01-0.3,0.01-0.4c0-0.27,0.01-0.54,0-0.81
			c-0.02-0.58-0.13-1.14-0.43-1.64C1.05,9.53,0.69,10.16,0.88,10.48L0.88,10.48z"/>
	</g>
</g>
<g>
	<g>
		<path d="M13.08-0.04c-0.05,0.48-0.37,0.76-0.7,1.07c-0.27,0.26-0.17,0.67-0.16,1.02c0,0.37-0.03,0.57,0.25,0.84
			c0.25,0.25,0.92,0.33,0.97,0.71c0-0.42,0-0.83,0-1.25c-0.01,0.04-0.03,0.08-0.04,0.12c-0.13,0.37,0.13,0.89,0,1.25
			c0.08-0.21,0.05-0.44,0.05-0.66c0-0.22,0.04-0.49-0.01-0.71c-0.07-0.29-0.34-0.32-0.59-0.44c-0.27-0.13-0.49-0.33-0.63-0.6
			c0,0.15,0,0.31,0.01,0.46c0-0.03,0-0.07,0-0.1c0,0.26,0,0.53-0.01,0.79c0.3-0.46,0.79-0.64,0.86-1.26
			C13.13,0.8,13.04,0.37,13.08-0.04L13.08-0.04z"/>
	</g>
</g>
<g>
	<g>
		<path d="M15.08-0.02c-0.05,0.6-0.35,0.98-0.7,1.43c-0.24,0.31-0.17,0.65-0.17,1.03c0,0.38-0.02,0.64,0.19,0.96
			c0.26,0.39,0.97,0.54,1.02,1.03c0-0.42,0-0.83,0-1.25c-0.01,0.05-0.03,0.11-0.04,0.16c-0.11,0.39,0.1,0.86,0,1.25
			c0.11-0.41,0.11-0.98,0.04-1.4c-0.05-0.34-0.24-0.39-0.51-0.57c-0.33-0.22-0.55-0.46-0.7-0.84c0,0.15,0,0.31,0.01,0.46
			c0-0.05,0-0.09,0-0.14c0,0.26,0,0.53-0.01,0.79c0.3-0.61,0.8-0.93,0.86-1.68C15.12,0.82,15.05,0.4,15.08-0.02L15.08-0.02z"/>
	</g>
</g>
<g>
	<g>
		<path d="M17.08,0.01c-0.06,0.76-0.41,1.21-0.74,1.84c-0.18,0.35-0.13,0.75-0.13,1.14c0,0.39,0,0.65,0.19,1
			c0.27,0.49,0.94,0.69,1.02,1.26c0-0.42,0-0.83,0-1.25c-0.01,0.08-0.03,0.15-0.04,0.23c-0.08,0.4,0.08,0.85,0,1.25
			c0.09-0.44,0.12-1.01,0.05-1.45c-0.07-0.43-0.28-0.48-0.59-0.74c-0.31-0.26-0.51-0.61-0.63-1c0,0.41,0,0.82,0,1.23
			c0.02-0.39,0.36-0.69,0.52-1.03c0.19-0.39,0.3-0.79,0.34-1.22C17.11,0.84,17.05,0.42,17.08,0.01L17.08,0.01z"/>
	</g>
</g>
<g>
	<g>
		<path d="M19.08,1.01c-0.06,0.76-0.41,1.21-0.74,1.84c-0.18,0.35-0.13,0.75-0.13,1.14c0,0.39,0,0.65,0.19,1
			c0.27,0.49,0.94,0.69,1.02,1.26c0-0.42,0-0.83,0-1.25c-0.01,0.08-0.03,0.15-0.04,0.23c-0.08,0.4,0.08,0.85,0,1.25
			c0.09-0.44,0.12-1.01,0.05-1.45c-0.07-0.43-0.28-0.48-0.59-0.74c-0.31-0.26-0.51-0.61-0.63-1c0,0.41,0,0.82,0,1.23
			c0.02-0.39,0.36-0.69,0.52-1.03c0.19-0.39,0.3-0.79,0.34-1.22C19.11,1.84,19.05,1.42,19.08,1.01L19.08,1.01z"/>
	</g>
</g>
<g>
	<g>
		<path d="M3.08,3.01C3.02,3.76,2.67,4.21,2.35,4.85C2.17,5.2,2.21,5.6,2.22,5.99c0,0.39,0,0.65,0.19,1
			c0.27,0.49,0.94,0.69,1.02,1.26c0-0.42,0-0.83,0-1.25C3.42,7.07,3.4,7.14,3.39,7.22c-0.08,0.4,0.08,0.85,0,1.25
			c0.09-0.44,0.12-1.01,0.05-1.45C3.36,6.59,3.16,6.54,2.85,6.28c-0.31-0.26-0.51-0.61-0.63-1c0,0.41,0,0.82,0,1.23
			c0.02-0.39,0.36-0.69,0.52-1.03c0.19-0.39,0.3-0.79,0.34-1.22C3.11,3.84,3.05,3.42,3.08,3.01L3.08,3.01z"/>
	</g>
</g>
<path class="st0" d="M7.5,3.5"/>
<path class="st0" d="M6.5,3.5"/>
<path class="st0" d="M1.5,3.5"/>
<path class="st0" d="M2.5,3.5"/>
<path class="st0" d="M5.5,3.5"/>
<path class="st0" d="M2.5,3.5"/>
<path class="st0" d="M25.5,3.5"/>
<g>
	<path d="M12,5c3.86,0,7,3.14,7,7s-3.14,7-7,7s-7-3.14-7-7S8.14,5,12,5 M12,4c-4.42,0-8,3.58-8,8s3.58,8,8,8s8-3.58,8-8
		S16.42,4,12,4L12,4z"/>
</g>
<path class="st0" d="M24.5,3.5"/>
<path class="st0" d="M26.5,1.5"/>
<path class="st0" d="M5.5,22.5"/>
<path class="st0" d="M7.5,20.5"/>
<path class="st0" d="M26.39,22.6"/>
<path class="st0" d="M24.61,20.4"/>
<path class="st0" d="M7.39,3.6"/>
<path class="st0" d="M5.61,1.4"/>
</svg>
